<svg xmlns="http://www.w3.org/2000/svg" viewBox="0 0 64 64">
  <rect width="64" height="64" rx="16" fill="#0B0B0F"/>
  <g transform="translate(10.5 6) scale(0.43)">
    <path d="M50 96C31 96 18 81 22 61C25 44 30 27 39 15C42 9 48 7 49 14C50 18 52 19 54 16C57 11 65 12 68 20C74 32 77 46 78 61C82 81 69 96 50 96Z" fill="#5EEAD4"/>
    <circle cx="39.2" cy="60" r="5.5" fill="#0B0B0F"/>
    <circle cx="60.8" cy="60" r="5.5" fill="#0B0B0F"/>
    <circle cx="41.2" cy="58.2" r="1.7" fill="#fff"/>
    <circle cx="62.8" cy="58.2" r="1.7" fill="#fff"/>
  </g>
</svg>
